# xmcd CD database file
#
# Track frame offsets:
#	150
#	10043
#	21983
#	33105
#	44774
#	58615
#	71437
#	82853
#	94223
#	114918
#	124460
#
# Disc length: 1780 seconds
#
# Revision: 0
# Processed by: cddbd v1.5.2PL0 Copyright (c) Steve Scherf et al.
# Submitted via: CDex 1.70beta3
#
DISCID=8806f20b
DTITLE=Sansa Trio - Sansa Trio Vol.2
DYEAR=1966
DGENRE=Jazz
TTITLE0=Sambidú
TTITLE1=Caô Xangô
TTITLE2=Aruanda
TTITLE3=Mar, Amar
TTITLE4=Sou Sem Paz
TTITLE5=A Resposta
TTITLE6=Bossa Só
TTITLE7=Dois Peixinhos
TTITLE8=Chuva
TTITLE9=Tudo Que É Preciso
TTITLE10=Foi Assim
EXTD=YEAR: 1966
EXTT0=
EXTT1=
EXTT2=
EXTT3=
EXTT4=
EXTT5=
EXTT6=
EXTT7=
EXTT8=
EXTT9=
EXTT10=
PLAYORDER=
